<svg width="1200" height="630" viewBox="0 0 1200 630" fill="none" xmlns="http://www.w3.org/2000/svg">
  <title>ShreyaDesk - Zerodha trading research dashboard</title>
  <desc>
    A focused market desk for OCC signals, holdings, analytics, and controlled auto-trading.
  </desc>
  <defs>
    <radialGradient id="c" cx="0" cy="0" r="1" gradientUnits="userSpaceOnUse" gradientTransform="rotate(228 625.212 45.16)scale(430 360)">
      <stop stop-color="#ff4500" stop-opacity=".2"/>
      <stop offset="1" stop-color="#ff4500" stop-opacity="0"/>
    </radialGradient>
    <linearGradient id="a" x1="0" y1="0" x2="1200" y2="630" gradientUnits="userSpaceOnUse">
      <stop stop-color="#0b0d0f"/>
      <stop offset="1" stop-color="#181818"/>
    </linearGradient>
    <pattern id="b" width="36" height="36" patternUnits="userSpaceOnUse">
      <path d="M36 0H0v36" stroke="#c8d0cc" stroke-opacity=".045"/>
    </pattern>
    <filter id="d" x="-20%" y="-20%" width="140%" height="140%">
      <feDropShadow dx="0" dy="16" stdDeviation="18" flood-color="#000" flood-opacity=".35"/>
    </filter>
  </defs>
  <path fill="url(#a)" d="M0 0h1200v630H0z"/>
  <path fill="url(#b)" d="M0 0h1200v630H0z"/>
  <path fill="url(#c)" d="M0 0h1200v630H0z"/>
  <g opacity=".7" stroke="#ff4500">
    <path d="M0 520c110-34 166-2 248-42 92-46 148-12 230-54 96-49 158 0 238-54 97-66 165-18 236-78 82-70 154-34 248-108" stroke-opacity=".16" stroke-width="2"/>
    <path d="M0 520c110-34 166-2 248-42 92-46 148-12 230-54 96-49 158 0 238-54 97-66 165-18 236-78 82-70 154-34 248-108" stroke-width="5" stroke-dasharray="2 22"/>
  </g>
  <g filter="url(#d)">
    <rect x="752" y="92" width="304" height="370" rx="10" fill="#101313" stroke="#29302f"/>
    <rect x="776" y="118" width="80" height="8" rx="4" fill="#ff4500"/>
    <rect x="776" y="145" width="154" height="12" rx="6" fill="#c8d0cc" fill-opacity=".78"/>
    <rect x="776" y="167" width="106" height="8" rx="4" fill="#8a9490" fill-opacity=".75"/>
    <path d="m778 378 39-35 33 12 38-63 37 24 38-68 45 22" stroke="#ff4500" stroke-width="4" stroke-linecap="round" stroke-linejoin="round"/>
    <path d="m778 378 39-35 33 12 38-63 37 24 38-68 45 22v135H778z" fill="#ff4500" fill-opacity=".08"/>
    <path d="M778 405h232m-232-40h232m-232-40h232m-232-40h232" stroke="#29302f"/>
    <circle cx="1008" cy="270" r="6" fill="#ff4500"/>
    <rect x="776" y="426" width="68" height="8" rx="4" fill="#5b9a5d"/>
    <rect x="856" y="426" width="54" height="8" rx="4" fill="#8a9490" fill-opacity=".6"/>
  </g>
  <g font-family="Manrope, Arial, sans-serif">
    <image x="86" y="84" width="38" height="38" href="weblogo.svg"/>
    <text x="142" y="112" font-size="25" font-weight="800" letter-spacing="-.6"><tspan fill="#ede8dc">Shreya</tspan><tspan fill="#ff4500">Desk</tspan></text>
    <text x="88" y="218" fill="#8a9490" font-family="DM Mono, monospace" font-size="14" letter-spacing="2.1">PRIVATE MARKET CONSOLE</text>
    <text x="84" y="306" fill="#ede8dc" font-size="67" font-weight="800" letter-spacing="-2.4">Your market desk,</text>
    <text x="84" y="377" fill="#ede8dc" font-size="67" font-weight="800" letter-spacing="-2.4">quietly <tspan fill="#ff4500">in control.</tspan></text>
    <text x="88" y="426" fill="#8a9490" font-size="19" font-weight="500">OCC signals, analytics, and risk-aware Zerodha execution.</text>
  </g>
  <g font-family="DM Mono, monospace" font-size="14">
    <rect x="88" y="501" width="116" height="36" rx="6" fill="#101313" stroke="#29302f"/>
    <text x="107" y="524" fill="#c8d0cc">SIGNALS</text>
    <rect x="216" y="501" width="137" height="36" rx="6" fill="#101313" stroke="#29302f"/>
    <text x="235" y="524" fill="#c8d0cc">ANALYTICS</text>
    <rect x="365" y="501" width="126" height="36" rx="6" fill="#101313" stroke="#29302f"/>
    <text x="384" y="524" fill="#c8d0cc">RISK GATES</text>
  </g>
  <text x="1112" y="572" text-anchor="end" fill="#8a9490" font-family="DM Mono, monospace" font-size="14" letter-spacing="1.2">ZERODHA / SINGLE-USER VM</text>
</svg>
